<mxfile host="app.diagrams.net" modified="2024-03-17T19:32:30.973Z" agent="Mozilla/5.0 (Windows NT 10.0; Win64; x64; rv:123.0) Gecko/20100101 Firefox/123.0" etag="4Jx1HIz_Xur3ktT4D3sa" version="24.0.7" type="device">
  <diagram name="Página-1" id="-mRmaE19NoiFFjwk9Uk_">
    <mxGraphModel dx="922" dy="497" grid="1" gridSize="10" guides="1" tooltips="1" connect="1" arrows="1" fold="1" page="1" pageScale="1" pageWidth="827" pageHeight="1169" math="0" shadow="0">
      <root>
        <mxCell id="0" />
        <mxCell id="1" parent="0" />
        <mxCell id="KlyE9x5cvI0THRlVv1wp-4" style="edgeStyle=orthogonalEdgeStyle;rounded=0;orthogonalLoop=1;jettySize=auto;html=1;entryX=0.5;entryY=0;entryDx=0;entryDy=0;" edge="1" parent="1" source="KlyE9x5cvI0THRlVv1wp-1" target="KlyE9x5cvI0THRlVv1wp-3">
          <mxGeometry relative="1" as="geometry" />
        </mxCell>
        <mxCell id="KlyE9x5cvI0THRlVv1wp-5" style="edgeStyle=orthogonalEdgeStyle;rounded=0;orthogonalLoop=1;jettySize=auto;html=1;" edge="1" parent="1" source="KlyE9x5cvI0THRlVv1wp-1" target="KlyE9x5cvI0THRlVv1wp-2">
          <mxGeometry relative="1" as="geometry" />
        </mxCell>
        <mxCell id="KlyE9x5cvI0THRlVv1wp-1" value="Producto a comprar" style="ellipse;whiteSpace=wrap;html=1;" vertex="1" parent="1">
          <mxGeometry x="150" y="70" width="120" height="80" as="geometry" />
        </mxCell>
        <mxCell id="KlyE9x5cvI0THRlVv1wp-9" style="edgeStyle=orthogonalEdgeStyle;rounded=0;orthogonalLoop=1;jettySize=auto;html=1;entryX=0.5;entryY=0;entryDx=0;entryDy=0;" edge="1" parent="1" source="KlyE9x5cvI0THRlVv1wp-2" target="KlyE9x5cvI0THRlVv1wp-8">
          <mxGeometry relative="1" as="geometry" />
        </mxCell>
        <mxCell id="KlyE9x5cvI0THRlVv1wp-2" value="Por Nombre" style="ellipse;whiteSpace=wrap;html=1;" vertex="1" parent="1">
          <mxGeometry x="354" y="70" width="120" height="80" as="geometry" />
        </mxCell>
        <mxCell id="KlyE9x5cvI0THRlVv1wp-39" style="edgeStyle=orthogonalEdgeStyle;rounded=0;orthogonalLoop=1;jettySize=auto;html=1;entryX=1;entryY=0.5;entryDx=0;entryDy=0;" edge="1" parent="1" source="KlyE9x5cvI0THRlVv1wp-3" target="KlyE9x5cvI0THRlVv1wp-8">
          <mxGeometry relative="1" as="geometry">
            <Array as="points">
              <mxPoint x="120" y="250" />
              <mxPoint x="120" y="30" />
              <mxPoint x="790" y="30" />
              <mxPoint x="790" y="190" />
            </Array>
          </mxGeometry>
        </mxCell>
        <mxCell id="KlyE9x5cvI0THRlVv1wp-3" value="&lt;div&gt;Por Categoría&lt;/div&gt;" style="ellipse;whiteSpace=wrap;html=1;" vertex="1" parent="1">
          <mxGeometry x="150" y="210" width="120" height="80" as="geometry" />
        </mxCell>
        <mxCell id="KlyE9x5cvI0THRlVv1wp-7" value="" style="endArrow=classic;startArrow=classic;html=1;rounded=0;exitX=1;exitY=0;exitDx=0;exitDy=0;entryX=0;entryY=1;entryDx=0;entryDy=0;" edge="1" parent="1" source="KlyE9x5cvI0THRlVv1wp-3" target="KlyE9x5cvI0THRlVv1wp-2">
          <mxGeometry width="50" height="50" relative="1" as="geometry">
            <mxPoint x="390" y="240" as="sourcePoint" />
            <mxPoint x="440" y="190" as="targetPoint" />
          </mxGeometry>
        </mxCell>
        <mxCell id="KlyE9x5cvI0THRlVv1wp-11" style="edgeStyle=orthogonalEdgeStyle;rounded=0;orthogonalLoop=1;jettySize=auto;html=1;entryX=1;entryY=1;entryDx=0;entryDy=0;" edge="1" parent="1" source="KlyE9x5cvI0THRlVv1wp-8" target="KlyE9x5cvI0THRlVv1wp-2">
          <mxGeometry relative="1" as="geometry">
            <Array as="points">
              <mxPoint x="456" y="190" />
            </Array>
          </mxGeometry>
        </mxCell>
        <mxCell id="KlyE9x5cvI0THRlVv1wp-16" style="edgeStyle=orthogonalEdgeStyle;rounded=0;orthogonalLoop=1;jettySize=auto;html=1;entryX=0.5;entryY=0;entryDx=0;entryDy=0;" edge="1" parent="1" source="KlyE9x5cvI0THRlVv1wp-8" target="KlyE9x5cvI0THRlVv1wp-15">
          <mxGeometry relative="1" as="geometry" />
        </mxCell>
        <mxCell id="KlyE9x5cvI0THRlVv1wp-8" value="Producto encontrado" style="ellipse;whiteSpace=wrap;html=1;" vertex="1" parent="1">
          <mxGeometry x="650" y="150" width="120" height="80" as="geometry" />
        </mxCell>
        <mxCell id="KlyE9x5cvI0THRlVv1wp-10" value="Inserta nombre de producto" style="text;html=1;align=center;verticalAlign=middle;resizable=0;points=[];autosize=1;strokeColor=none;fillColor=none;" vertex="1" parent="1">
          <mxGeometry x="585" y="70" width="170" height="30" as="geometry" />
        </mxCell>
        <mxCell id="KlyE9x5cvI0THRlVv1wp-12" value="No encontrado" style="text;html=1;align=center;verticalAlign=middle;resizable=0;points=[];autosize=1;strokeColor=none;fillColor=none;" vertex="1" parent="1">
          <mxGeometry x="560" y="195" width="100" height="30" as="geometry" />
        </mxCell>
        <mxCell id="KlyE9x5cvI0THRlVv1wp-13" style="edgeStyle=orthogonalEdgeStyle;rounded=0;orthogonalLoop=1;jettySize=auto;html=1;entryX=0.983;entryY=0.638;entryDx=0;entryDy=0;entryPerimeter=0;exitX=0;exitY=1;exitDx=0;exitDy=0;" edge="1" parent="1" source="KlyE9x5cvI0THRlVv1wp-8" target="KlyE9x5cvI0THRlVv1wp-3">
          <mxGeometry relative="1" as="geometry">
            <Array as="points">
              <mxPoint x="668" y="260" />
              <mxPoint x="267" y="260" />
            </Array>
          </mxGeometry>
        </mxCell>
        <mxCell id="KlyE9x5cvI0THRlVv1wp-19" style="edgeStyle=orthogonalEdgeStyle;rounded=0;orthogonalLoop=1;jettySize=auto;html=1;entryX=0.5;entryY=0;entryDx=0;entryDy=0;" edge="1" parent="1" source="KlyE9x5cvI0THRlVv1wp-15" target="KlyE9x5cvI0THRlVv1wp-17">
          <mxGeometry relative="1" as="geometry" />
        </mxCell>
        <mxCell id="KlyE9x5cvI0THRlVv1wp-29" style="edgeStyle=orthogonalEdgeStyle;rounded=0;orthogonalLoop=1;jettySize=auto;html=1;entryX=1;entryY=0.5;entryDx=0;entryDy=0;" edge="1" parent="1" source="KlyE9x5cvI0THRlVv1wp-15" target="KlyE9x5cvI0THRlVv1wp-28">
          <mxGeometry relative="1" as="geometry" />
        </mxCell>
        <mxCell id="KlyE9x5cvI0THRlVv1wp-15" value="Producto seleccionado, puedo visualizar las caracteristicas y personalizar la compra(talla, color, cantidad, etc)" style="ellipse;whiteSpace=wrap;html=1;" vertex="1" parent="1">
          <mxGeometry x="615" y="330" width="190" height="110" as="geometry" />
        </mxCell>
        <mxCell id="KlyE9x5cvI0THRlVv1wp-23" style="edgeStyle=orthogonalEdgeStyle;rounded=0;orthogonalLoop=1;jettySize=auto;html=1;" edge="1" parent="1" source="KlyE9x5cvI0THRlVv1wp-17" target="KlyE9x5cvI0THRlVv1wp-22">
          <mxGeometry relative="1" as="geometry" />
        </mxCell>
        <mxCell id="KlyE9x5cvI0THRlVv1wp-30" style="edgeStyle=orthogonalEdgeStyle;rounded=0;orthogonalLoop=1;jettySize=auto;html=1;entryX=1;entryY=1;entryDx=0;entryDy=0;exitX=0;exitY=0;exitDx=0;exitDy=0;" edge="1" parent="1" source="KlyE9x5cvI0THRlVv1wp-17" target="KlyE9x5cvI0THRlVv1wp-28">
          <mxGeometry relative="1" as="geometry">
            <mxPoint x="667.6" y="485" as="sourcePoint" />
            <mxPoint x="460.02640687119276" y="353.2842712474619" as="targetPoint" />
            <Array as="points">
              <mxPoint x="659" y="440" />
              <mxPoint x="502" y="440" />
            </Array>
          </mxGeometry>
        </mxCell>
        <mxCell id="KlyE9x5cvI0THRlVv1wp-17" value="Producto en carrito&lt;br&gt;&lt;div&gt;El carrito muestra la lista de productos, la cantidad y el precio total?&lt;/div&gt;" style="ellipse;whiteSpace=wrap;html=1;" vertex="1" parent="1">
          <mxGeometry x="637.5" y="490" width="145" height="100" as="geometry" />
        </mxCell>
        <mxCell id="KlyE9x5cvI0THRlVv1wp-20" value="Añadir al carrito" style="text;html=1;align=center;verticalAlign=middle;resizable=0;points=[];autosize=1;strokeColor=none;fillColor=none;" vertex="1" parent="1">
          <mxGeometry x="710" y="450" width="110" height="30" as="geometry" />
        </mxCell>
        <mxCell id="KlyE9x5cvI0THRlVv1wp-21" value="Selecciona producto" style="text;html=1;align=center;verticalAlign=middle;resizable=0;points=[];autosize=1;strokeColor=none;fillColor=none;" vertex="1" parent="1">
          <mxGeometry x="710" y="260" width="130" height="30" as="geometry" />
        </mxCell>
        <mxCell id="KlyE9x5cvI0THRlVv1wp-26" style="edgeStyle=orthogonalEdgeStyle;rounded=0;orthogonalLoop=1;jettySize=auto;html=1;" edge="1" parent="1" source="KlyE9x5cvI0THRlVv1wp-22" target="KlyE9x5cvI0THRlVv1wp-25">
          <mxGeometry relative="1" as="geometry" />
        </mxCell>
        <mxCell id="KlyE9x5cvI0THRlVv1wp-31" style="edgeStyle=orthogonalEdgeStyle;rounded=0;orthogonalLoop=1;jettySize=auto;html=1;entryX=0.5;entryY=1;entryDx=0;entryDy=0;" edge="1" parent="1" source="KlyE9x5cvI0THRlVv1wp-22" target="KlyE9x5cvI0THRlVv1wp-28">
          <mxGeometry relative="1" as="geometry" />
        </mxCell>
        <mxCell id="KlyE9x5cvI0THRlVv1wp-22" value="&lt;div&gt;Producto en sección de pago&lt;/div&gt;Se puede pagar con TC o Paypal?" style="ellipse;whiteSpace=wrap;html=1;" vertex="1" parent="1">
          <mxGeometry x="386" y="485" width="144" height="110" as="geometry" />
        </mxCell>
        <mxCell id="KlyE9x5cvI0THRlVv1wp-24" value="Ir a pasarela de pagos" style="text;html=1;align=center;verticalAlign=middle;resizable=0;points=[];autosize=1;strokeColor=none;fillColor=none;" vertex="1" parent="1">
          <mxGeometry x="520" y="485" width="140" height="30" as="geometry" />
        </mxCell>
        <mxCell id="KlyE9x5cvI0THRlVv1wp-25" value="Producto comprado" style="ellipse;whiteSpace=wrap;html=1;" vertex="1" parent="1">
          <mxGeometry x="170" y="500" width="120" height="80" as="geometry" />
        </mxCell>
        <mxCell id="KlyE9x5cvI0THRlVv1wp-27" value="&lt;div&gt;Usuario ingresa información&lt;/div&gt;&lt;div&gt;&amp;nbsp;de envio y pago&lt;/div&gt;" style="text;html=1;align=center;verticalAlign=middle;resizable=0;points=[];autosize=1;strokeColor=none;fillColor=none;" vertex="1" parent="1">
          <mxGeometry x="244" y="475" width="170" height="40" as="geometry" />
        </mxCell>
        <mxCell id="KlyE9x5cvI0THRlVv1wp-32" style="edgeStyle=orthogonalEdgeStyle;rounded=0;orthogonalLoop=1;jettySize=auto;html=1;entryX=0.5;entryY=1;entryDx=0;entryDy=0;" edge="1" parent="1" source="KlyE9x5cvI0THRlVv1wp-28" target="KlyE9x5cvI0THRlVv1wp-2">
          <mxGeometry relative="1" as="geometry">
            <Array as="points">
              <mxPoint x="458" y="230" />
              <mxPoint x="414" y="230" />
            </Array>
          </mxGeometry>
        </mxCell>
        <mxCell id="KlyE9x5cvI0THRlVv1wp-35" style="edgeStyle=orthogonalEdgeStyle;rounded=0;orthogonalLoop=1;jettySize=auto;html=1;entryX=1;entryY=1;entryDx=0;entryDy=0;" edge="1" parent="1" source="KlyE9x5cvI0THRlVv1wp-28" target="KlyE9x5cvI0THRlVv1wp-3">
          <mxGeometry relative="1" as="geometry">
            <Array as="points">
              <mxPoint x="252" y="320" />
            </Array>
          </mxGeometry>
        </mxCell>
        <mxCell id="KlyE9x5cvI0THRlVv1wp-28" value="Salir de la página o buscar otro producto" style="ellipse;whiteSpace=wrap;html=1;" vertex="1" parent="1">
          <mxGeometry x="398" y="280" width="120" height="80" as="geometry" />
        </mxCell>
        <mxCell id="KlyE9x5cvI0THRlVv1wp-36" value="&lt;div&gt;Buscar otro&lt;/div&gt;&lt;div&gt;producto&lt;/div&gt;" style="text;html=1;align=center;verticalAlign=middle;resizable=0;points=[];autosize=1;strokeColor=none;fillColor=none;" vertex="1" parent="1">
          <mxGeometry x="340" y="255" width="80" height="40" as="geometry" />
        </mxCell>
        <mxCell id="KlyE9x5cvI0THRlVv1wp-40" value="&lt;div&gt;Busca la categoría&lt;/div&gt;&lt;div&gt;y el producto&lt;br&gt;&lt;/div&gt;" style="text;html=1;align=center;verticalAlign=middle;resizable=0;points=[];autosize=1;strokeColor=none;fillColor=none;" vertex="1" parent="1">
          <mxGeometry y="195" width="120" height="40" as="geometry" />
        </mxCell>
      </root>
    </mxGraphModel>
  </diagram>
</mxfile>
